<svg width="48" height="48" viewBox="0 0 48 48" fill="none" xmlns="http://www.w3.org/2000/svg">
<g id="gift">
<g id="vuesax/outline/gift">
<g id="gift_2">
<path id="Vector" d="M31.94 45.5H15.94C9.1 45.5 6.44 42.84 6.44 36V20C6.44 19.18 7.12 18.5 7.94 18.5H39.94C40.76 18.5 41.44 19.18 41.44 20V36C41.44 42.84 38.78 45.5 31.94 45.5ZM9.44 21.5V36C9.44 41.16 10.78 42.5 15.94 42.5H31.94C37.1 42.5 38.44 41.16 38.44 36V21.5H9.44Z" fill="#F3283D"/>
<path id="Vector_2" d="M39 21.5H9C5.5 21.5 3.5 19.5 3.5 16V14C3.5 10.5 5.5 8.5 9 8.5H39C42.4 8.5 44.5 10.6 44.5 14V16C44.5 19.4 42.4 21.5 39 21.5ZM9 11.5C7.18 11.5 6.5 12.18 6.5 14V16C6.5 17.82 7.18 18.5 9 18.5H39C40.76 18.5 41.5 17.76 41.5 16V14C41.5 12.24 40.76 11.5 39 11.5H9Z" fill="#F3283D"/>
<path id="Vector_3" d="M23.28 11.5H12.24C11.82 11.5 11.42 11.32 11.14 11.02C9.92 9.68001 9.96 7.62001 11.24 6.34001L14.08 3.50001C15.4 2.18001 17.58 2.18001 18.9 3.50001L24.34 8.94001C24.76 9.36001 24.9 10.02 24.66 10.58C24.44 11.14 23.9 11.5 23.28 11.5ZM13.34 8.50001H19.68L16.78 5.62001C16.62 5.46001 16.36 5.46001 16.2 5.62001L13.36 8.46001C13.36 8.48001 13.34 8.48001 13.34 8.50001Z" fill="#F3283D"/>
<path id="Vector_4" d="M35.74 11.5H24.7C24.1 11.5 23.54 11.14 23.32 10.58C23.08 10.02 23.22 9.38001 23.64 8.94001L29.08 3.50001C30.4 2.18001 32.58 2.18001 33.9 3.50001L36.74 6.34001C38.02 7.62001 38.08 9.68001 36.84 11.02C36.56 11.32 36.16 11.5 35.74 11.5ZM28.34 8.50001H34.68C34.66 8.48001 34.66 8.48001 34.64 8.46001L31.8 5.62001C31.64 5.46001 31.38 5.46001 31.22 5.62001L28.34 8.50001Z" fill="#F3283D"/>
<path id="Vector_5" d="M19.88 33.8C19.32 33.8 18.74 33.66 18.22 33.38C17.08 32.76 16.38 31.58 16.38 30.3V20C16.38 19.18 17.06 18.5 17.88 18.5H29.96C30.78 18.5 31.46 19.18 31.46 20V30.26C31.46 31.56 30.76 32.74 29.62 33.34C28.48 33.96 27.1 33.88 26.02 33.16L24.24 31.96C24.08 31.84 23.86 31.84 23.68 31.96L21.8 33.2C21.22 33.6 20.54 33.8 19.88 33.8ZM19.38 21.5V30.28C19.38 30.54 19.54 30.66 19.64 30.72C19.74 30.78 19.94 30.84 20.16 30.7L22.04 29.46C23.22 28.68 24.74 28.68 25.9 29.46L27.68 30.66C27.9 30.8 28.1 30.74 28.2 30.68C28.3 30.62 28.46 30.5 28.46 30.24V21.48H19.38V21.5Z" fill="#F3283D"/>
</g>
</g>
</g>
</svg>
