<svg width="48" height="48" viewBox="0 0 48 48" fill="none" xmlns="http://www.w3.org/2000/svg">
<g id="money-recive">
<g id="vuesax/outline/money-recive">
<g id="money-recive_2">
<path id="Vector" d="M26.1 32.5H22.34C19.68 32.5 17.5 30.26 17.5 27.5C17.5 26.68 18.18 26 19 26C19.82 26 20.5 26.68 20.5 27.5C20.5 28.6 21.32 29.5 22.34 29.5H26.1C26.88 29.5 27.5 28.8 27.5 27.94C27.5 26.86 27.2 26.7 26.52 26.46L20.5 24.36C19.22 23.92 17.5 22.98 17.5 20.04C17.5 17.54 19.48 15.48 21.9 15.48H25.66C28.32 15.48 30.5 17.72 30.5 20.48C30.5 21.3 29.82 21.98 29 21.98C28.18 21.98 27.5 21.3 27.5 20.48C27.5 19.38 26.68 18.48 25.66 18.48H21.9C21.12 18.48 20.5 19.18 20.5 20.04C20.5 21.12 20.8 21.28 21.48 21.52L27.5 23.62C28.78 24.06 30.5 25 30.5 27.94C30.5 30.46 28.52 32.5 26.1 32.5Z" fill="#F3283D"/>
<path id="Vector_2" d="M24 34.5C23.18 34.5 22.5 33.82 22.5 33V15C22.5 14.18 23.18 13.5 24 13.5C24.82 13.5 25.5 14.18 25.5 15V33C25.5 33.82 24.82 34.5 24 34.5Z" fill="#F3283D"/>
<path id="Vector_3" d="M24 45.5C12.14 45.5 2.5 35.86 2.5 24C2.5 12.14 12.14 2.5 24 2.5C24.82 2.5 25.5 3.18 25.5 4C25.5 4.82 24.82 5.5 24 5.5C13.8 5.5 5.5 13.8 5.5 24C5.5 34.2 13.8 42.5 24 42.5C34.2 42.5 42.5 34.2 42.5 24C42.5 23.18 43.18 22.5 44 22.5C44.82 22.5 45.5 23.18 45.5 24C45.5 35.86 35.86 45.5 24 45.5Z" fill="#F3283D"/>
<path id="Vector_4" d="M42 15.5H34C33.18 15.5 32.5 14.82 32.5 14V6C32.5 5.18 33.18 4.5 34 4.5C34.82 4.5 35.5 5.18 35.5 6V12.5H42C42.82 12.5 43.5 13.18 43.5 14C43.5 14.82 42.82 15.5 42 15.5Z" fill="#F3283D"/>
<path id="Vector_5" d="M33.9999 15.5C33.6199 15.5 33.2399 15.36 32.9399 15.06C32.3599 14.48 32.3599 13.52 32.9399 12.94L42.9399 2.94C43.5199 2.36 44.4799 2.36 45.0599 2.94C45.6399 3.52 45.6399 4.48 45.0599 5.06L35.0599 15.06C34.7599 15.36 34.3799 15.5 33.9999 15.5Z" fill="#F3283D"/>
</g>
</g>
</g>
</svg>
