<svg width="48" height="48" viewBox="0 0 48 48" fill="none" xmlns="http://www.w3.org/2000/svg">
<g id="security-time">
<g id="vuesax/outline/security-time">
<g id="security-time_2">
<path id="Vector" d="M23.9998 45.52C21.8198 45.52 19.6598 44.88 17.9598 43.62L9.3598 37.2C7.0798 35.5 5.2998 31.94 5.2998 29.12V14.24C5.2998 11.16 7.55984 7.88 10.4598 6.8L20.4398 3.06C22.4198 2.32 25.5398 2.32 27.5198 3.06L37.4998 6.8C40.3998 7.88 42.6598 11.16 42.6598 14.24V29.1C42.6598 31.94 40.8798 35.48 38.5998 37.18L29.9998 43.6C28.3398 44.88 26.1798 45.52 23.9998 45.52ZM21.4998 5.88001L11.5198 9.62C9.81984 10.26 8.31982 12.42 8.31982 14.26V29.12C8.31982 31.02 9.65979 33.68 11.1598 34.8L19.7598 41.22C22.0598 42.94 25.9398 42.94 28.2598 41.22L36.8598 34.8C38.3798 33.66 39.6998 31.02 39.6998 29.12V14.24C39.6998 12.42 38.1998 10.26 36.4998 9.60001L26.5198 5.86001C25.1598 5.38001 22.8398 5.38001 21.4998 5.88001Z" fill="#F3283D"/>
<path id="Vector_2" d="M24 32.5C18.76 32.5 14.5 28.24 14.5 23C14.5 17.76 18.76 13.5 24 13.5C29.24 13.5 33.5 17.76 33.5 23C33.5 28.24 29.24 32.5 24 32.5ZM24 16.5C20.42 16.5 17.5 19.42 17.5 23C17.5 26.58 20.42 29.5 24 29.5C27.58 29.5 30.5 26.58 30.5 23C30.5 19.42 27.58 16.5 24 16.5Z" fill="#F3283D"/>
<path id="Vector_3" d="M21.9998 26.5C21.4998 26.5 20.9998 26.24 20.7198 25.78C20.2998 25.06 20.5198 24.14 21.2398 23.72L22.7598 22.8C22.9198 22.7 22.9998 22.54 22.9998 22.38V20.52C22.9998 19.7 23.6798 19.02 24.4998 19.02C25.3198 19.02 25.9998 19.68 25.9998 20.5V22.36C25.9998 23.58 25.3398 24.74 24.2998 25.36L22.7598 26.28C22.5398 26.44 22.2598 26.5 21.9998 26.5Z" fill="#F3283D"/>
</g>
</g>
</g>
</svg>
