<svg width="48" height="48" viewBox="0 0 48 48" fill="none" xmlns="http://www.w3.org/2000/svg">
<g id="ship">
<g id="vuesax/outline/ship">
<g id="ship_2">
<path id="Vector" d="M28.7596 45.5H19.2395C11.6795 45.5 5.73953 40.7399 4.09953 33.3599L3.27958 29.64C2.71958 27.08 4.17953 24.32 6.59953 23.34L20.4596 17.78C22.7396 16.88 25.2595 16.88 27.5395 17.78L41.3996 23.34C43.8396 24.32 45.2995 27.08 44.7195 29.64L43.8996 33.3599C42.2596 40.7399 36.3196 45.5 28.7596 45.5ZM23.9996 20.0999C23.1796 20.0999 22.3596 20.2599 21.5596 20.5599L7.69957 26.1199C6.63957 26.5399 5.93955 27.8799 6.17955 28.9799L6.99955 32.7C8.33955 38.74 13.0195 42.4799 19.2195 42.4799H28.7395C34.9395 42.4799 39.6196 38.74 40.9596 32.7L41.7796 28.9799C42.0196 27.8799 41.3196 26.5399 40.2596 26.1199L26.3996 20.5599C25.6396 20.2599 24.8196 20.0999 23.9996 20.0999Z" fill="#F3283D"/>
<path id="Vector_2" d="M24 45.5C23.18 45.5 22.5 44.82 22.5 44V20C22.5 19.18 23.18 18.5 24 18.5C24.82 18.5 25.5 19.18 25.5 20V44C25.5 44.82 24.82 45.5 24 45.5Z" fill="#F3283D"/>
<path id="Vector_3" d="M38.0005 25.1C37.8205 25.1 37.6205 25.06 37.4405 25L26.4205 20.58C24.8605 19.96 23.1405 19.96 21.5605 20.58L10.5405 25C10.0805 25.18 9.5605 25.12 9.1405 24.84C8.7205 24.56 8.48047 24.1 8.48047 23.6V16C8.48047 11.86 11.8405 8.5 15.9805 8.5H31.9805C36.1205 8.5 39.4805 11.86 39.4805 16V23.6C39.4805 24.1 39.2405 24.56 38.8205 24.84C38.5805 25.02 38.3005 25.1 38.0005 25.1ZM24.0005 17.1C25.2005 17.1 26.4005 17.32 27.5405 17.78L36.5005 21.38V16C36.5005 13.52 34.4805 11.5 32.0005 11.5H16.0005C13.5205 11.5 11.5005 13.52 11.5005 16V21.38L20.4605 17.78C21.6005 17.34 22.8005 17.1 24.0005 17.1Z" fill="#F3283D"/>
<path id="Vector_4" d="M29 11.5H19C18.18 11.5 17.5 10.82 17.5 10V6C17.5 4.08 19.08 2.5 21 2.5H27C28.92 2.5 30.5 4.08 30.5 6V10C30.5 10.82 29.82 11.5 29 11.5ZM20.5 8.5H27.5V6C27.5 5.72 27.28 5.5 27 5.5H21C20.72 5.5 20.5 5.72 20.5 6V8.5Z" fill="#F3283D"/>
</g>
</g>
</g>
</svg>
